<svg width="1775" height="1068" viewBox="0 0 1775 1068" fill="none" xmlns="http://www.w3.org/2000/svg">
<path d="M1168.46 887.036L1160.04 895.464C1158.08 897.417 1158.08 900.583 1160.04 902.536L1168.46 910.964C1170.42 912.917 1173.58 912.917 1175.54 910.964L1183.96 902.536C1185.92 900.583 1185.92 897.417 1183.96 895.464L1175.54 887.036C1173.58 885.083 1170.42 885.083 1168.46 887.036Z" fill="#D9D9D9" fill-opacity="0.22"/>
<path d="M1639.96 448.536L1631.54 456.964C1629.58 458.917 1629.58 462.083 1631.54 464.036L1639.96 472.464C1641.92 474.417 1645.08 474.417 1647.04 472.464L1655.46 464.036C1657.42 462.083 1657.42 458.917 1655.46 456.964L1647.04 448.536C1645.08 446.583 1641.92 446.583 1639.96 448.536Z" fill="#D9D9D9" fill-opacity="0.22"/>
<path d="M11.9645 322.536L3.53553 330.964C1.58291 332.917 1.58292 336.083 3.53554 338.036L11.9645 346.464C13.9171 348.417 17.0829 348.417 19.0355 346.464L27.4645 338.036C29.4171 336.083 29.4171 332.917 27.4645 330.964L19.0355 322.536C17.0829 320.583 13.9171 320.583 11.9645 322.536Z" fill="#D9D9D9" fill-opacity="0.22"/>
<path d="M828.523 56.9607H840.443C843.204 56.9607 845.443 54.7222 845.443 51.9607L845.443 40.0404C845.443 37.279 843.204 35.0404 840.443 35.0404H828.523C825.761 35.0404 823.523 37.279 823.523 40.0404L823.523 51.9607C823.523 54.7222 825.761 56.9607 828.523 56.9607Z" fill="#D9D9D9" fill-opacity="0.22"/>
<path d="M1303.58 768.181C1305.59 770.644 1309.41 770.644 1311.42 768.181C1312.91 766.344 1312.91 763.656 1311.42 761.819C1309.41 759.356 1305.59 759.356 1303.58 761.819C1302.09 763.656 1302.09 766.344 1303.58 768.181Z" fill="#D9D9D9" fill-opacity="0.22"/>
<path d="M832.585 836.181C834.586 838.644 838.414 838.644 840.415 836.181C841.908 834.344 841.908 831.656 840.415 829.819C838.414 827.356 834.586 827.356 832.585 829.819C831.092 831.656 831.092 834.344 832.585 836.181Z" fill="#D9D9D9" fill-opacity="0.22"/>
<path d="M654.585 984.181C656.586 986.644 660.414 986.644 662.415 984.181C663.908 982.344 663.908 979.656 662.415 977.819C660.414 975.356 656.586 975.356 654.585 977.819C653.092 979.656 653.092 982.344 654.585 984.181Z" fill="#D9D9D9" fill-opacity="0.22"/>
<path d="M109.585 968.181C111.586 970.644 115.414 970.644 117.415 968.181C118.908 966.344 118.908 963.656 117.415 961.819C115.414 959.356 111.586 959.356 109.585 961.819C108.092 963.656 108.092 966.344 109.585 968.181Z" fill="#D9D9D9" fill-opacity="0.22"/>
<path d="M67.5847 386.181C69.5857 388.644 73.4143 388.644 75.4153 386.181C76.9079 384.344 76.9079 381.656 75.4153 379.819C73.4143 377.356 69.5857 377.356 67.5847 379.819C66.0921 381.656 66.0921 384.344 67.5847 386.181Z" fill="#D9D9D9" fill-opacity="0.22"/>
<path d="M185.056 33.6263H196.976C199.737 33.6263 201.976 31.3877 201.976 28.6263L201.976 16.706C201.976 13.9445 199.737 11.706 196.976 11.706H185.056C182.294 11.706 180.056 13.9445 180.056 16.706L180.056 28.6263C180.056 31.3877 182.294 33.6263 185.056 33.6263Z" fill="#D9D9D9" fill-opacity="0.22"/>
<path d="M666.613 85.7641C666.94 82.6078 664.233 79.9005 661.076 80.227C658.722 80.4706 656.821 82.3715 656.577 84.7259C656.251 87.8822 658.958 90.5895 662.114 90.263C664.469 90.0194 666.37 88.1185 666.613 85.7641Z" fill="#D9D9D9" fill-opacity="0.22"/>
<path d="M1117.74 370.864C1118.07 367.708 1115.36 365 1112.21 365.327C1109.85 365.571 1107.95 367.471 1107.71 369.826C1107.38 372.982 1110.09 375.689 1113.24 375.363C1115.6 375.119 1117.5 373.218 1117.74 370.864Z" fill="#D9D9D9" fill-opacity="0.22"/>
<path d="M1330.58 351.772C1330.91 348.616 1328.2 345.909 1325.05 346.235C1322.69 346.479 1320.79 348.38 1320.55 350.734C1320.22 353.89 1322.93 356.598 1326.08 356.271C1328.44 356.027 1330.34 354.126 1330.58 351.772Z" fill="#D9D9D9" fill-opacity="0.22"/>
<path d="M1634.64 748.323C1634.97 745.167 1632.26 742.46 1629.11 742.786C1626.75 743.03 1624.85 744.931 1624.61 747.285C1624.28 750.441 1626.99 753.149 1630.14 752.822C1632.5 752.578 1634.4 750.678 1634.64 748.323Z" fill="#D9D9D9" fill-opacity="0.22"/>
<path d="M598.964 555.79L590.536 564.219C588.583 566.171 588.583 569.337 590.536 571.29L598.964 579.719C600.917 581.671 604.083 581.671 606.036 579.719L614.464 571.29C616.417 569.337 616.417 566.171 614.464 564.219L606.036 555.79C604.083 553.837 600.917 553.837 598.964 555.79Z" fill="#D9D9D9" fill-opacity="0.22"/>
<path d="M1415.52 290.215H1427.44C1430.2 290.215 1432.44 287.976 1432.44 285.215L1432.44 273.295C1432.44 270.533 1430.2 268.295 1427.44 268.295H1415.52C1412.76 268.295 1410.52 270.533 1410.52 273.295L1410.52 285.215C1410.52 287.976 1412.76 290.215 1415.52 290.215Z" fill="#D9D9D9" fill-opacity="0.22"/>
<path d="M1419.58 1069.44C1421.59 1071.9 1425.41 1071.9 1427.42 1069.44C1428.91 1067.6 1428.91 1064.91 1427.42 1063.07C1425.41 1060.61 1421.59 1060.61 1419.58 1063.07C1418.09 1064.91 1418.09 1067.6 1419.58 1069.44Z" fill="#D9D9D9" fill-opacity="0.22"/>
<path d="M654.585 619.435C656.586 621.898 660.414 621.898 662.415 619.435C663.908 617.598 663.908 614.91 662.415 613.073C660.414 610.61 656.586 610.61 654.585 613.073C653.092 614.91 653.092 617.598 654.585 619.435Z" fill="#D9D9D9" fill-opacity="0.22"/>
<path d="M772.056 266.88H783.976C786.737 266.88 788.976 264.642 788.976 261.88L788.976 249.96C788.976 247.199 786.737 244.96 783.976 244.96H772.056C769.294 244.96 767.056 247.199 767.056 249.96L767.056 261.88C767.056 264.642 769.294 266.88 772.056 266.88Z" fill="#D9D9D9" fill-opacity="0.22"/>
<path d="M1253.61 319.018C1253.94 315.862 1251.23 313.155 1248.08 313.481C1245.72 313.725 1243.82 315.626 1243.58 317.98C1243.25 321.136 1245.96 323.844 1249.11 323.517C1251.47 323.274 1253.37 321.373 1253.61 319.018Z" fill="#D9D9D9" fill-opacity="0.22"/>
<path d="M1704.74 604.118C1705.07 600.962 1702.36 598.255 1699.21 598.581C1696.85 598.825 1694.95 600.726 1694.71 603.08C1694.38 606.236 1697.09 608.944 1700.24 608.617C1702.6 608.374 1704.5 606.473 1704.74 604.118Z" fill="#D9D9D9" fill-opacity="0.22"/>
<path d="M1168.46 887.036L1160.04 895.464C1158.08 897.417 1158.08 900.583 1160.04 902.536L1168.46 910.964C1170.42 912.917 1173.58 912.917 1175.54 910.964L1183.96 902.536C1185.92 900.583 1185.92 897.417 1183.96 895.464L1175.54 887.036C1173.58 885.083 1170.42 885.083 1168.46 887.036Z" fill="#D9D9D9" fill-opacity="0.22"/>
<path d="M1639.96 448.536L1631.54 456.964C1629.58 458.917 1629.58 462.083 1631.54 464.036L1639.96 472.464C1641.92 474.417 1645.08 474.417 1647.04 472.464L1655.46 464.036C1657.42 462.083 1657.42 458.917 1655.46 456.964L1647.04 448.536C1645.08 446.583 1641.92 446.583 1639.96 448.536Z" fill="#D9D9D9" fill-opacity="0.22"/>
<path d="M11.9645 322.536L3.53553 330.964C1.58291 332.917 1.58292 336.083 3.53554 338.036L11.9645 346.464C13.9171 348.417 17.0829 348.417 19.0355 346.464L27.4645 338.036C29.4171 336.083 29.4171 332.917 27.4645 330.964L19.0355 322.536C17.0829 320.583 13.9171 320.583 11.9645 322.536Z" fill="#D9D9D9" fill-opacity="0.22"/>
<path d="M828.523 56.9607H840.443C843.204 56.9607 845.443 54.7222 845.443 51.9607L845.443 40.0404C845.443 37.279 843.204 35.0404 840.443 35.0404H828.523C825.761 35.0404 823.523 37.279 823.523 40.0404L823.523 51.9607C823.523 54.7222 825.761 56.9607 828.523 56.9607Z" fill="#D9D9D9" fill-opacity="0.22"/>
<path d="M1303.58 768.181C1305.59 770.644 1309.41 770.644 1311.42 768.181C1312.91 766.344 1312.91 763.656 1311.42 761.819C1309.41 759.356 1305.59 759.356 1303.58 761.819C1302.09 763.656 1302.09 766.344 1303.58 768.181Z" fill="#D9D9D9" fill-opacity="0.22"/>
<path d="M832.585 836.181C834.586 838.644 838.414 838.644 840.415 836.181C841.908 834.344 841.908 831.656 840.415 829.819C838.414 827.356 834.586 827.356 832.585 829.819C831.092 831.656 831.092 834.344 832.585 836.181Z" fill="#D9D9D9" fill-opacity="0.22"/>
<path d="M654.585 984.181C656.586 986.644 660.414 986.644 662.415 984.181C663.908 982.344 663.908 979.656 662.415 977.819C660.414 975.356 656.586 975.356 654.585 977.819C653.092 979.656 653.092 982.344 654.585 984.181Z" fill="#D9D9D9" fill-opacity="0.22"/>
<path d="M109.585 968.181C111.586 970.644 115.414 970.644 117.415 968.181C118.908 966.344 118.908 963.656 117.415 961.819C115.414 959.356 111.586 959.356 109.585 961.819C108.092 963.656 108.092 966.344 109.585 968.181Z" fill="#D9D9D9" fill-opacity="0.22"/>
<path d="M67.5847 386.181C69.5857 388.644 73.4143 388.644 75.4153 386.181C76.9079 384.344 76.9079 381.656 75.4153 379.819C73.4143 377.356 69.5857 377.356 67.5847 379.819C66.0921 381.656 66.0921 384.344 67.5847 386.181Z" fill="#D9D9D9" fill-opacity="0.22"/>
<path d="M185.056 33.6263H196.976C199.737 33.6263 201.976 31.3877 201.976 28.6263L201.976 16.706C201.976 13.9445 199.737 11.706 196.976 11.706H185.056C182.294 11.706 180.056 13.9445 180.056 16.706L180.056 28.6263C180.056 31.3877 182.294 33.6263 185.056 33.6263Z" fill="#D9D9D9" fill-opacity="0.22"/>
<path d="M666.613 85.7641C666.94 82.6078 664.233 79.9005 661.076 80.227C658.722 80.4706 656.821 82.3715 656.577 84.7259C656.251 87.8822 658.958 90.5895 662.114 90.263C664.469 90.0194 666.37 88.1185 666.613 85.7641Z" fill="#D9D9D9" fill-opacity="0.22"/>
<path d="M1117.74 370.864C1118.07 367.708 1115.36 365 1112.21 365.327C1109.85 365.571 1107.95 367.471 1107.71 369.826C1107.38 372.982 1110.09 375.689 1113.24 375.363C1115.6 375.119 1117.5 373.218 1117.74 370.864Z" fill="#D9D9D9" fill-opacity="0.22"/>
<path d="M1330.58 351.772C1330.91 348.616 1328.2 345.909 1325.05 346.235C1322.69 346.479 1320.79 348.38 1320.55 350.734C1320.22 353.89 1322.93 356.598 1326.08 356.271C1328.44 356.027 1330.34 354.126 1330.58 351.772Z" fill="#D9D9D9" fill-opacity="0.22"/>
<path d="M1634.64 748.323C1634.97 745.167 1632.26 742.46 1629.11 742.786C1626.75 743.03 1624.85 744.931 1624.61 747.285C1624.28 750.441 1626.99 753.149 1630.14 752.822C1632.5 752.578 1634.4 750.678 1634.64 748.323Z" fill="#D9D9D9" fill-opacity="0.22"/>
</svg>
