<svg width="370" height="85" viewBox="0 0 370 85" fill="none" xmlns="http://www.w3.org/2000/svg">
<rect x="7.5" y="13.5" width="361" height="70" fill="#0C1248" stroke="#0C1248" stroke-width="3"/>
<rect x="1.5" y="4.5" width="361" height="70" fill="white" stroke="#0C1248" stroke-width="3"/>
<path d="M7.792 60V55.464L9.808 55.296C10.7787 55.2213 11.264 54.6987 11.264 53.728V27.688L8.072 27.52V22.76H18.152L34 48.464H34.112V27.688L30.416 27.52V22.76H44.08V27.296L42.064 27.464C41.168 27.5387 40.72 28.1173 40.72 29.2V60H34.168L17.984 33.904H17.872V55.072L21.512 55.24V60H7.792ZM75.9186 55.576V60H66.8466V56.36C64.7933 59.272 61.7693 60.728 57.7746 60.728C51.988 60.728 49.0946 57.4987 49.0946 51.04V38.104C49.0946 37.096 48.628 36.5733 47.6946 36.536L45.9026 36.424V31.832H55.7586V49.584C55.7586 51.5627 56.0386 53.056 56.5986 54.064C57.1586 55.072 58.316 55.576 60.0706 55.576C61.8253 55.576 63.2253 55.0347 64.2706 53.952C65.3533 52.8693 65.8946 51.5627 65.8946 50.032V38.216C65.8946 37.6187 65.7826 37.208 65.5586 36.984C65.372 36.7227 65.0173 36.5733 64.4946 36.536L62.7026 36.424V31.832H72.5586V53.784C72.5586 54.3813 72.652 54.792 72.8386 55.016C73.0253 55.2027 73.3986 55.3333 73.9586 55.408L75.9186 55.576ZM78.9886 36.368V31.832H88.4526V35.472C90.5432 32.4853 93.3992 30.992 97.0206 30.992C100.679 30.992 103.143 32.4853 104.413 35.472C106.503 32.4853 109.341 30.992 112.925 30.992C115.613 30.992 117.685 31.8133 119.141 33.456C120.597 35.0613 121.325 37.488 121.325 40.736V55.352L124.517 55.52V60H111.189V55.744L113.037 55.576C113.597 55.5013 113.989 55.352 114.213 55.128C114.474 54.8667 114.623 54.4187 114.661 53.784V42.192C114.661 40.1387 114.418 38.6267 113.933 37.656C113.485 36.648 112.402 36.144 110.685 36.144C108.967 36.144 107.642 36.6667 106.709 37.712C105.813 38.7573 105.365 40.1573 105.365 41.912V55.352L108.445 55.52V60H95.2286V55.744L97.0766 55.576C97.6366 55.5013 98.0472 55.352 98.3086 55.128C98.5699 54.8667 98.7006 54.4 98.7006 53.728V42.192C98.7006 40.1387 98.4579 38.6267 97.9726 37.656C97.5246 36.648 96.4232 36.144 94.6686 36.144C92.9512 36.144 91.6446 36.6853 90.7486 37.768C89.8526 38.8507 89.4046 40.1947 89.4046 41.8V55.352L92.4286 55.52V60H79.2126V55.744L81.0606 55.576C81.6206 55.5013 82.0312 55.352 82.2926 55.128C82.5539 54.8667 82.6846 54.4 82.6846 53.728H82.7406V38.272C82.7406 37.6373 82.6286 37.208 82.4046 36.984C82.2179 36.7227 81.8632 36.5733 81.3406 36.536L78.9886 36.368ZM130.296 58.32V26.176C130.296 25.3173 129.83 24.8693 128.896 24.832L126.936 24.72V20.072H136.792V33.344C138.472 31.776 140.731 30.992 143.568 30.992C147.078 30.992 149.859 32.1867 151.912 34.576C153.966 36.928 154.992 40.2507 154.992 44.544C154.992 55.3333 150.475 60.728 141.44 60.728C139.499 60.728 137.446 60.4853 135.28 60C133.152 59.552 131.491 58.992 130.296 58.32ZM136.792 40.176V54.68C138.211 55.4267 139.854 55.8 141.72 55.8C145.976 55.8 148.104 52.3467 148.104 45.44C148.104 39.1307 146.014 35.976 141.832 35.976C140.488 35.976 139.312 36.368 138.304 37.152C137.296 37.936 136.792 38.944 136.792 40.176ZM173.006 30.992C175.806 30.992 178.027 31.6827 179.67 33.064C181.312 34.408 182.134 36.312 182.134 38.776C182.134 40.4187 181.779 41.8747 181.07 43.144C180.36 44.376 179.483 45.3467 178.438 46.056C177.392 46.7653 176.123 47.344 174.63 47.792C172.128 48.5387 169.31 48.912 166.174 48.912C166.286 50.8907 166.902 52.496 168.022 53.728C169.142 54.9227 170.859 55.52 173.174 55.52C175.488 55.52 177.803 54.6987 180.118 53.056L182.246 57.592C181.499 58.264 180.23 58.9547 178.438 59.664C176.683 60.3733 174.667 60.728 172.39 60.728C167.835 60.728 164.494 59.4773 162.366 56.976C160.238 54.4373 159.174 50.9653 159.174 46.56C159.174 42.1547 160.387 38.4587 162.814 35.472C165.24 32.4853 168.638 30.992 173.006 30.992ZM170.43 43.816C171.811 43.5547 173.08 43.0133 174.238 42.192C175.395 41.3333 175.974 40.3253 175.974 39.168C175.974 36.8907 174.854 35.752 172.614 35.752C170.523 35.752 168.918 36.592 167.798 38.272C166.678 39.9147 166.062 41.8933 165.95 44.208C167.592 44.1707 169.086 44.04 170.43 43.816ZM189.547 53.728V38.216C189.547 37.6187 189.435 37.208 189.211 36.984C189.024 36.7227 188.669 36.5733 188.147 36.536L185.795 36.368V31.832H195.259V36.032C195.931 34.576 196.976 33.3813 198.395 32.448C199.813 31.4773 201.437 30.992 203.267 30.992C205.133 30.992 206.907 31.4027 208.587 32.224V40.568L203.379 40.96V38.384C203.379 37.6373 203.192 37.1707 202.819 36.984C202.408 36.7973 201.904 36.704 201.307 36.704C199.813 36.704 198.581 37.2453 197.611 38.328C196.677 39.3733 196.211 40.7173 196.211 42.36V55.352L201.083 55.576V60H186.075V55.744L187.923 55.576C188.483 55.5013 188.893 55.352 189.155 55.128C189.416 54.8667 189.547 54.4 189.547 53.728ZM223.097 60V55.464L225.113 55.296C226.083 55.2213 226.569 54.6987 226.569 53.728V27.688L223.377 27.52V22.76H233.457L249.305 48.464H249.417V27.688L245.721 27.52V22.76H259.385V27.296L257.369 27.464C256.473 27.5387 256.025 28.1173 256.025 29.2V60H249.473L233.289 33.904H233.177V55.072L236.817 55.24V60H223.097ZM272.773 31.832V55.352L275.965 55.52V60H262.637V55.744L264.485 55.576C265.568 55.464 266.109 54.8667 266.109 53.784V38.216C266.109 37.5813 265.997 37.152 265.773 36.928C265.586 36.704 265.232 36.592 264.709 36.592L262.749 36.48V31.832H272.773ZM265.717 27.016C264.933 26.232 264.541 25.2427 264.541 24.048C264.541 22.8533 264.933 21.864 265.717 21.08C266.501 20.2587 267.528 19.848 268.797 19.848C270.066 19.848 271.093 20.2587 271.877 21.08C272.698 21.864 273.109 22.8533 273.109 24.048C273.109 25.2427 272.698 26.232 271.877 27.016C271.093 27.7627 270.066 28.136 268.797 28.136C267.528 28.136 266.501 27.7627 265.717 27.016ZM278.871 36.312V31.832H288.335V35.472C289.306 34.0907 290.594 33.008 292.199 32.224C293.805 31.4027 295.541 30.992 297.407 30.992C300.245 30.992 302.429 31.8133 303.959 33.456C305.527 35.0613 306.311 37.488 306.311 40.736V55.352L309.503 55.52V60H296.175V55.744L298.023 55.576C298.583 55.5013 298.994 55.352 299.255 55.128C299.517 54.8667 299.647 54.4 299.647 53.728V42.192C299.647 40.1387 299.33 38.6267 298.695 37.656C298.061 36.648 296.847 36.144 295.055 36.144C293.301 36.144 291.901 36.704 290.855 37.824C289.81 38.944 289.287 40.2693 289.287 41.8V55.352L292.479 55.52V60H279.151V55.744L280.999 55.576C281.559 55.5013 281.97 55.352 282.231 55.128C282.493 54.8667 282.623 54.4 282.623 53.728V38.216C282.623 37.096 282.157 36.5173 281.223 36.48L278.871 36.312ZM321.492 31.832V61.344C321.492 64.3307 321.006 66.7573 320.036 68.624C318.804 70.864 316.302 71.984 312.532 71.984C309.844 71.984 307.454 71.3307 305.364 70.024L307.38 65.376C308.836 66.16 310.161 66.552 311.356 66.552C312.588 66.552 313.465 66.1787 313.988 65.432C314.548 64.6853 314.828 63.416 314.828 61.624V38.216C314.828 37.6187 314.716 37.208 314.492 36.984C314.305 36.76 313.95 36.6293 313.428 36.592L311.468 36.48V31.832H321.492ZM314.436 27.016C313.652 26.232 313.26 25.2427 313.26 24.048C313.26 22.8533 313.652 21.864 314.436 21.08C315.22 20.2587 316.246 19.848 317.516 19.848C318.785 19.848 319.812 20.2587 320.596 21.08C321.417 21.864 321.828 22.8533 321.828 24.048C321.828 25.2427 321.417 26.232 320.596 27.016C319.812 27.7627 318.785 28.136 317.516 28.136C316.246 28.136 315.22 27.7627 314.436 27.016ZM352.695 32.952V53.784C352.695 54.3813 352.788 54.792 352.975 55.016C353.199 55.24 353.572 55.3707 354.095 55.408L355.887 55.52V60H346.983V56.752L346.815 56.696C344.948 59.384 342.391 60.728 339.143 60.728C335.335 60.728 332.516 59.5147 330.687 57.088C328.858 54.6613 327.943 51.3387 327.943 47.12C327.943 42.0427 329.175 38.0853 331.639 35.248C334.103 32.4107 337.799 30.992 342.727 30.992C345.9 30.992 349.223 31.6453 352.695 32.952ZM346.199 51.096V36.592C345.154 36.1067 343.716 35.864 341.887 35.864C339.386 35.864 337.575 36.872 336.455 38.888C335.335 40.904 334.775 43.5733 334.775 46.896C334.775 52.944 336.716 55.968 340.599 55.968C342.242 55.968 343.586 55.4827 344.631 54.512C345.676 53.504 346.199 52.3653 346.199 51.096Z" fill="#D03737"/>
</svg>
